<?xml version="1.0" encoding="utf-8"?>
<!-- Generator: Adobe Illustrator 24.0.1, SVG Export Plug-In . SVG Version: 6.00 Build 0)  -->
<svg version="1.1" id="Calque_1" xmlns="http://www.w3.org/2000/svg" xmlns:xlink="http://www.w3.org/1999/xlink" x="0px" y="0px"
	 viewBox="0 0 1920 1080" style="enable-background:new 0 0 1920 1080;" xml:space="preserve">
<style type="text/css">
	.st0{clip-path:url(#SVGID_2_);fill:none;}
	.st1{clip-path:url(#SVGID_2_);fill:#FF6700;}
	.st2{clip-path:url(#SVGID_2_);fill:#FF8736;}
	.st3{clip-path:url(#SVGID_2_);fill:#FCBF95;}
	.st4{clip-path:url(#SVGID_2_);fill:#FFAA71;}
	.st5{clip-path:url(#SVGID_2_);fill:#07432C;}
</style>
<g>
	<defs>
		<rect id="SVGID_1_" x="0" width="1920" height="1080"/>
	</defs>
	<clipPath id="SVGID_2_">
		<use xlink:href="#SVGID_1_"  style="overflow:visible;"/>
	</clipPath>
	<rect x="0" class="st0" width="1920" height="1080"/>
	<circle class="st1" cx="1634" cy="261" r="123"/>
	<circle class="st2" cx="1806.5" cy="411.5" r="253.5"/>
	<circle class="st3" cx="1456.5" cy="515.5" r="230.5"/>
	<path class="st1" d="M-713,515c37.3-168.4,738.6-330.3,1253-86c282.4,134.1,558.3,414.3,808,312c77.9-31.9,103.6-80.6,196-98
		c212.6-39.9,473.6,100.7,474,215c0.6,151-455.2,286.6-726,332C299.1,1356.7-763,741-713,515z"/>
	<path class="st3" d="M534,1135c49.8-190.8-166.7-410.7-375-449c-35.3-6.5-138-25.3-228,34c-117.2,77.3-149.5,245.2-113,367
		c60.4,201.5,320.2,313.7,515,244C349.3,1325.2,499,1269.1,534,1135z"/>
	<path class="st3" d="M-598,930c-56.4-278.3,155.6-591,418-601c268.8-10.3,490.5,301,462,576c-18.3,177.3-145.1,382.9-351,422
		C-312.6,1373.3-550.5,1164.4-598,930z"/>
	<path class="st4" d="M716,589c-61.8,80.7,63.8,340.5,269,435c74.4,34.2,153.9,33.2,313,31c85.6-1.2,158.2-7.1,568-80
		c212.4-37.8,256.7-47.5,267-82c21-70.1-108.8-205.5-257-232c-183.1-32.7-232,129.8-430,121c-176.7-7.9-205.2-140.3-484-199
		C860.4,561.6,754.1,539.2,716,589z"/>
	<path class="st5" d="M1116,1280"/>
	<path class="st5" d="M0,32c155.4,22.6,312.4,65.9,494,142c268.2,112.4,255.9,134.7,467,249c186,100.7,667.7,291.9,959,144
		c34.8-17.7,121.4-68.1,176-34c39.1,24.4,60.5,91.4,45,148c0,0-9.1,34.1-35,61c-198,206.1-773,111-773,111
		C682.1,745.4,655.8,515.4,222,525c-319.3,7.1-471.4,135.4-619,22c-140.3-107.8-186.6-365-86-481C-402.7-26.6-250.4-4.5,0,32z"/>
	<path class="st5" d="M-194,946c66-94.7,447.8-17,586,215c21.1,35.5,60,100.7,35,144c-50.2,87-348.5,69.7-514-101
		C-151.6,1137.4-235.9,1006.1-194,946z"/>
	<path class="st5" d="M179,1143c-4.4-54,143.5-115.2,322-189c90.3-37.4,136.7-56,199-57c18.9-0.3,194.8-0.1,305,139
		c31,39.1,88.8,112.1,68,166C1007.2,1372.1,189.1,1267.2,179,1143z"/>
	<path class="st5" d="M847,999c32.1-101.1,397.1-47.6,535-16c35.7,8.2,92.2,23.2,138,72c45.7,48.8,86,137,57,192
		c-50.6,95.9-307.3,81.6-492-10C978.9,1184.4,824.3,1070.4,847,999z"/>
	<path class="st5" d="M1487,1198c219.8,158.5,458.5,132.9,539,19c63.5-89.9,19.7-222.4,8-255"/>
	<path class="st5" d="M1333,1169c-23.5-81.5,616.4-245.5,728-258c14.9-1.7,57.1-6.4,63,8c5.9,14.4-27.3,40.7-39,50
		C1980.5,1051.8,1356.4,1250.2,1333,1169z"/>
	<rect x="0" class="st0" width="1920" height="1080"/>
</g>
</svg>
